<?xml version="1.0" standalone="no"?>
<!DOCTYPE svg PUBLIC "-//W3C//DTD SVG 20010904//EN"
 "http://www.w3.org/TR/2001/REC-SVG-20010904/DTD/svg10.dtd">
<svg version="1.0" xmlns="http://www.w3.org/2000/svg"
 width="300.000000pt" height="300.000000pt" viewBox="0 0 300.000000 300.000000"
 preserveAspectRatio="xMidYMid meet">
<metadata>
Created by potrace 1.11, written by Peter Selinger 2001-2013
</metadata>
<g transform="translate(0.000000,300.000000) scale(0.100000,-0.100000)"
fill="#000000" stroke="none">
<path d="M1328 2995 c-5 -5 -71 -17 -100 -18 -16 -1 -28 -4 -28 -7 0 -3 -8 -6
-17 -7 -31 -2 -77 -13 -115 -28 -21 -8 -38 -12 -38 -8 0 4 -5 2 -12 -5 -7 -7
-17 -12 -24 -12 -6 0 -29 -8 -50 -17 -22 -9 -41 -17 -44 -18 -17 -4 -126 -59
-130 -65 -3 -4 -31 -22 -62 -39 -31 -18 -62 -39 -68 -46 -7 -8 -16 -15 -21
-15 -27 0 -245 -209 -297 -285 -15 -22 -32 -44 -38 -50 -12 -10 -68 -96 -69
-105 0 -3 -12 -23 -26 -45 -55 -87 -146 -326 -151 -397 -1 -15 -5 -28 -8 -28
-3 0 -6 -12 -6 -27 -1 -16 -5 -39 -9 -53 -13 -46 -14 -354 -2 -362 9 -6 8 -8
-1 -8 -7 0 -11 -4 -8 -8 2 -4 7 -28 10 -53 3 -25 7 -52 10 -60 3 -7 7 -25 10
-39 5 -32 25 -110 33 -130 3 -8 7 -19 8 -25 0 -5 4 -18 8 -27 8 -22 18 -52 18
-55 -1 -6 58 -125 73 -148 9 -14 14 -25 12 -25 -5 0 56 -96 74 -117 5 -7 10
-15 10 -18 0 -6 13 -23 43 -56 9 -10 17 -21 17 -24 0 -11 196 -215 206 -215 3
0 32 -22 67 -48 82 -64 132 -93 142 -84 5 4 5 2 2 -4 -7 -12 138 -88 218 -115
22 -7 45 -17 50 -21 6 -4 25 -9 42 -13 18 -3 45 -10 60 -16 27 -11 82 -20 131
-23 12 0 22 -4 22 -8 0 -8 1 -8 228 -12 89 -2 165 1 168 5 2 4 11 6 19 2 8 -3
23 -2 33 2 9 4 31 9 47 10 17 1 31 3 33 5 3 3 9 5 62 14 85 16 360 125 368
147 2 5 9 9 17 9 7 0 18 7 25 15 7 8 16 13 20 10 4 -3 10 2 14 10 3 8 12 15
19 15 8 0 22 9 32 20 10 11 24 20 31 20 7 0 17 6 21 13 4 6 24 24 43 39 54 40
150 135 150 148 0 6 5 8 10 5 6 -3 10 -2 10 3 0 4 10 19 22 32 90 96 258 387
271 467 1 10 5 23 8 28 8 13 27 74 33 105 3 14 13 63 22 110 27 133 25 418 -5
555 -21 99 -75 269 -92 291 -5 6 -6 14 -2 17 3 4 0 7 -7 7 -7 0 -11 3 -7 6 5
5 -13 43 -66 134 -23 40 -69 113 -77 120 -3 3 -24 30 -46 60 -38 51 -166 184
-211 220 -83 66 -186 136 -213 145 -11 3 -20 11 -20 16 0 6 -4 7 -10 4 -5 -3
-10 -2 -10 2 0 9 -72 43 -90 43 -6 0 -10 5 -10 11 0 5 -4 7 -10 4 -5 -3 -10
-2 -10 2 0 7 -58 28 -100 37 -3 1 -10 4 -15 8 -9 5 -53 18 -160 45 -11 3 -35
6 -52 7 -18 0 -33 4 -33 8 0 8 10 7 -217 12 -100 3 -183 3 -185 1z"/>
</g>
</svg>
